<svg xmlns="http://www.w3.org/2000/svg" width="627.925537109375" height="335.18084716796875" viewBox="-757.9267578125 -172.31103515625 627.925537109375 335.18084716796875"><title>Neo4j Graph Visualization</title><desc>Created using Neo4j (http://www.neo4j.com/)</desc><g class="layer relationships"><g class="relationship" transform="translate(-312.45555114746094 51.859338328956255) rotate(335.4491995527785)"><path class="b-outline" fill="#A5ABB6" stroke="none" d="M 32.5 0.5 L 54.659806911040434 0.5 L 54.659806911040434 -0.5 L 32.5 -0.5 Z M 103.19886941104043 0.5 L 125.35867632208087 0.5 L 125.35867632208087 3.5 L 132.35867632208087 0 L 125.35867632208087 -3.5 L 125.35867632208087 -0.5 L 103.19886941104043 -0.5 Z"/><text text-anchor="middle" pointer-events="none" font-size="8px" fill="#000000" x="78.92933816104043" y="3" font-family="Helvetica Neue, Helvetica, Arial, sans-serif">RESOLVES</text></g><g class="relationship" transform="translate(-373.82136178474735 -139.811038801038) rotate(432.2468441378599)"><path class="b-outline" fill="#A5ABB6" stroke="none" d="M 31.26317983184346,8.894581878976458 L 31.52199887694598,7.92865605268739 A 262.1638898491205 262.1638898491205 0 0 0 62.279363936641346,14.22392624575761 L 62.13786602633507,15.213864800102755 A 263.1638898491205 263.1638898491205 0 0 1 31.26317983184346,8.894581878976458 Z M 132.0688630022117,15.822935477975392 L 131.9446291777577,14.83068250778004 A 262.1638898491205 262.1638898491205 0 0 0 162.806978458279,9.072095084962138 L 162.08111222261937,6.161232977625321 L 169.71996774800814,7.863550886312501 L 163.77480010582514,12.953244561411228 L 163.0489338701655,10.042382454074412 A 263.1638898491205 263.1638898491205 0 0 1 132.0688630022117,15.822935477975392"/><text text-anchor="middle" pointer-events="none" font-size="8px" fill="#000000" x="97.08739710925326" y="20.35171208909921" font-family="Helvetica Neue, Helvetica, Arial, sans-serif">SUBDOMAIN_OF</text></g><g class="relationship" transform="translate(-312.45555114746094 51.859338328956255) rotate(252.2468441378599)"><path class="b-outline" fill="#A5ABB6" stroke="none" d="M 31.26317983184346,8.894581878976458 L 31.52199887694598,7.92865605268739 A 262.1638898491205 262.1638898491205 0 0 0 60.1559284777887,13.911535805585714 L 60.006330918594564,14.90028277538292 A 263.1638898491205 263.1638898491205 0 0 1 31.26317983184346,8.894581878976458 Z M 134.2055366812437,15.546527824156641 L 134.07318368177576,14.555325179117887 A 262.1638898491205 262.1638898491205 0 0 0 162.806978458279,9.072095084962138 L 162.08111222261937,6.161232977625321 L 169.71996774800814,7.863550886312501 L 163.77480010582514,12.953244561411228 L 163.0489338701655,10.042382454074412 A 263.1638898491205 263.1638898491205 0 0 1 134.2055366812437,15.546527824156641"/><text text-anchor="middle" pointer-events="none" font-size="8px" fill="#000000" x="97.08739710925326" y="20.35171208909921" transform="rotate(180 97.08739710925326 17.35171208909921)" font-family="Helvetica Neue, Helvetica, Arial, sans-serif">PARENT_DOMAIN</text></g><g class="relationship" transform="translate(-171.0316294070919 130.3697909538226) rotate(209.03652344126692)"><path class="b-outline" fill="#A5ABB6" stroke="none" d="M 32.5 0.5 L 54.00435542593232 0.5 L 54.00435542593232 -0.5 L 32.5 -0.5 Z M 100.75044917593232 0.5 L 122.25480460186463 0.5 L 122.25480460186463 3.5 L 129.25480460186463 0 L 122.25480460186463 -3.5 L 122.25480460186463 -0.5 L 100.75044917593232 -0.5 Z"/><text text-anchor="middle" pointer-events="none" font-size="8px" fill="#000000" x="77.37740230093232" y="3" transform="rotate(180 77.37740230093232 0)" font-family="Helvetica Neue, Helvetica, Arial, sans-serif">CONTAINS</text></g><g class="relationship" transform="translate(-162.50121498047886 -16.639422414493396) rotate(453.32094349991957)"><path class="b-outline" fill="#A5ABB6" stroke="none" d="M 31.26317983184346,8.894581878976458 L 31.52199887694598,7.92865605268739 A 156.07410739142836 156.07410739142836 0 0 0 47.914091564689386,11.389990786560048 L 47.760300143718226,12.378094120647972 A 157.07410739142836 157.07410739142836 0 0 1 31.26317983184346,8.894581878976458 Z M 92.41601810602673,12.903385074144893 L 92.2855123967839,11.91193751635123 A 156.07410739142836 156.07410739142836 0 0 0 108.75449031019377,8.837151782173994 L 108.04641245009269,5.921911527231931 L 115.67473054840877,7.670843484428464 L 109.69859412366189,12.724138788763412 L 108.9905162635608,9.808898533821349 A 157.07410739142836 157.07410739142836 0 0 1 92.41601810602673,12.903385074144893"/><text text-anchor="middle" pointer-events="none" font-size="8px" fill="#000000" x="70.0752763681172" y="16.735920750643004" transform="rotate(180 70.0752763681172 13.735920750643004)" font-family="Helvetica Neue, Helvetica, Arial, sans-serif">RETURNS</text></g><g class="relationship" transform="translate(-171.0316294070919 130.3697909538226) rotate(273.32094349991957)"><path class="b-outline" fill="#A5ABB6" stroke="none" d="M 31.26317983184346,8.894581878976458 L 31.52199887694598,7.92865605268739 A 156.07410739142836 156.07410739142836 0 0 0 37.46292128819689,9.396318762585906 L 37.24216699650251,10.37164821600075 A 157.07410739142836 157.07410739142836 0 0 1 31.26317983184346,8.894581878976458 Z M 102.97843847431324,11.144912431639597 L 102.78068794322357,10.16466005217103 A 156.07410739142836 156.07410739142836 0 0 0 108.75449031019377,8.837151782173994 L 108.04641245009269,5.921911527231931 L 115.67473054840877,7.670843484428464 L 109.69859412366189,12.724138788763412 L 108.9905162635608,9.808898533821349 A 157.07410739142836 157.07410739142836 0 0 1 102.97843847431324,11.144912431639597"/><text text-anchor="middle" pointer-events="none" font-size="8px" fill="#000000" x="70.0752763681172" y="16.735920750643004" font-family="Helvetica Neue, Helvetica, Arial, sans-serif">DEPLOYED_ON</text></g><g class="relationship" transform="translate(-373.82136178474735 -139.811038801038) rotate(491.8407895326368)"><path class="b-outline" fill="#A5ABB6" stroke="none" d="M 32.5 0.5 L 113.48761993769219 0.5 L 113.48761993769219 -0.5 L 32.5 -0.5 Z M 162.0266824376922 0.5 L 243.01430237538437 0.5 L 243.01430237538437 3.5 L 250.01430237538437 0 L 243.01430237538437 -3.5 L 243.01430237538437 -0.5 L 162.0266824376922 -0.5 Z"/><text text-anchor="middle" pointer-events="none" font-size="8px" fill="#000000" x="137.7571511876922" y="3" transform="rotate(180 137.7571511876922 0)" font-family="Helvetica Neue, Helvetica, Arial, sans-serif">RESOLVES</text></g><g class="relationship" transform="translate(-373.82136178474735 -139.811038801038) rotate(466.24087935618377)"><path class="b-outline" fill="#A5ABB6" stroke="none" d="M 31.26317983184346,8.894581878976458 L 31.52199887694598,7.92865605268739 A 275.12758264410223 275.12758264410223 0 0 0 65.58149240047263,14.78388145300994 L 65.44646862589951,15.774723811965202 A 276.12758264410223 276.12758264410223 0 0 1 31.26317983184346,8.894581878976458 Z M 135.39041327282416,16.36508902194032 L 135.27213404891677,15.372108646911784 A 275.12758264410223 275.12758264410223 0 0 0 169.4424903993535,9.092780557653859 L 168.7150580642169,6.182309427785413 L 176.35482842490265,7.880516963979857 L 170.41240017953564,12.973408730811787 L 169.68496784439904,10.062937600943341 A 276.12758264410223 276.12758264410223 0 0 1 135.39041327282416,16.36508902194032"/><text text-anchor="middle" pointer-events="none" font-size="8px" fill="#000000" x="100.40389217156809" y="20.793583374015782" transform="rotate(180 100.40389217156809 17.793583374015782)" font-family="Helvetica Neue, Helvetica, Arial, sans-serif">SUBDOMAIN_OF</text></g><g class="relationship" transform="translate(-431.96182651513845 59.77811784715186) rotate(286.24087935618377)"><path class="b-outline" fill="#A5ABB6" stroke="none" d="M 31.26317983184346,8.894581878976458 L 31.52199887694598,7.92865605268739 A 275.12758264410223 275.12758264410223 0 0 0 63.455811613308946,14.485760730249638 L 63.313061674871285,15.475519516558734 A 276.12758264410223 276.12758264410223 0 0 1 31.26317983184346,8.894581878976458 Z M 137.52856680205062,16.101939037061754 L 137.40254422447768,15.109911663476794 A 275.12758264410223 275.12758264410223 0 0 0 169.4424903993535,9.092780557653859 L 168.7150580642169,6.182309427785413 L 176.35482842490265,7.880516963979857 L 170.41240017953564,12.973408730811787 L 169.68496784439904,10.062937600943341 A 276.12758264410223 276.12758264410223 0 0 1 137.52856680205062,16.101939037061754"/><text text-anchor="middle" pointer-events="none" font-size="8px" fill="#000000" x="100.40389217156809" y="20.793583374015782" font-family="Helvetica Neue, Helvetica, Arial, sans-serif">PARENT_DOMAIN</text></g><g class="relationship" transform="translate(-555.7043866092338 -74.08204092308463) rotate(340.1311270856711)"><path class="b-outline" fill="#A5ABB6" stroke="none" d="M 32.5 0.5 L 69.82459513521752 0.5 L 69.82459513521752 -0.5 L 32.5 -0.5 Z M 116.57068888521752 0.5 L 153.89528402043504 0.5 L 153.89528402043504 3.5 L 160.89528402043504 0 L 153.89528402043504 -3.5 L 153.89528402043504 -0.5 L 116.57068888521752 -0.5 Z"/><text text-anchor="middle" pointer-events="none" font-size="8px" fill="#000000" x="93.19764201021752" y="3" font-family="Helvetica Neue, Helvetica, Arial, sans-serif">CONTAINS</text></g><g class="relationship" transform="translate(-562.2762039226709 70.66248333754461) rotate(272.5996077104639)"><path class="b-outline" fill="#A5ABB6" stroke="none" d="M 31.26317983184346,-8.894581878976458 L 31.52199887694598,-7.92865605268739 A 151.4015820401574 151.4015820401574 0 0 1 46.739778969156404,-11.178372460116833 L 46.581472612806195,-12.165762503381984 A 152.4015820401574 152.4015820401574 0 0 0 31.26317983184346,-8.894581878976458 Z M 91.23199345568034,-12.699175666602486 L 91.09732043317403,-11.708285573297957 A 151.4015820401574 151.4015820401574 0 0 1 106.38839125736189,-8.82304022614589 L 105.68138187855023,-5.907540656900107 L 113.30905848207065,-7.659268270459647 L 107.33107042911077,-12.710372985140268 L 106.6240610502991,-9.794873415894484 A 152.4015820401574 152.4015820401574 0 0 0 91.23199345568034,-12.699175666602486"/><text text-anchor="middle" pointer-events="none" font-size="8px" fill="#000000" x="68.89306357049067" y="-10.576701582951017" font-family="Helvetica Neue, Helvetica, Arial, sans-serif">RETURNS</text></g><g class="relationship" transform="translate(-431.96182651513845 59.77811784715186) rotate(535.2255149135738)"><path class="b-outline" fill="#A5ABB6" stroke="none" d="M 32.5 0.5 L 37.614538620346195 0.5 L 37.614538620346195 -0.5 L 32.5 -0.5 Z M 86.1536011203462 0.5 L 91.26813974069239 0.5 L 91.26813974069239 3.5 L 98.26813974069239 0 L 91.26813974069239 -3.5 L 91.26813974069239 -0.5 L 86.1536011203462 -0.5 Z"/><text text-anchor="middle" pointer-events="none" font-size="8px" fill="#000000" x="61.884069870346195" y="3" transform="rotate(180 61.884069870346195 0)" font-family="Helvetica Neue, Helvetica, Arial, sans-serif">RESOLVES</text></g><g class="relationship" transform="translate(-555.7043866092338 -74.08204092308463) rotate(407.24919170531723)"><path class="b-outline" fill="#A5ABB6" stroke="none" d="M 32.5 0.5 L 64.273488007893 0.5 L 64.273488007893 -0.5 L 32.5 -0.5 Z M 111.019581757893 0.5 L 142.793069765786 0.5 L 142.793069765786 3.5 L 149.793069765786 0 L 142.793069765786 -3.5 L 142.793069765786 -0.5 L 111.019581757893 -0.5 Z"/><text text-anchor="middle" pointer-events="none" font-size="8px" fill="#000000" x="87.646534882893" y="3" font-family="Helvetica Neue, Helvetica, Arial, sans-serif">CONTAINS</text></g><g class="relationship" transform="translate(-555.7043866092338 -74.08204092308463) rotate(452.5996077104639)"><path class="b-outline" fill="#A5ABB6" stroke="none" d="M 31.26317983184346,-8.894581878976458 L 31.52199887694598,-7.92865605268739 A 151.4015820401574 151.4015820401574 0 0 1 36.30113240838188,-9.12622783499441 L 36.07387930510795,-10.100063563981763 A 152.4015820401574 152.4015820401574 0 0 0 31.26317983184346,-8.894581878976458 Z M 101.78593628155522,-10.885086347856571 L 101.5820123845856,-9.906099604205394 A 151.4015820401574 151.4015820401574 0 0 1 106.38839125736189,-8.82304022614589 L 105.68138187855023,-5.907540656900107 L 113.30905848207065,-7.659268270459647 L 107.33107042911077,-12.710372985140268 L 106.6240610502991,-9.794873415894484 A 152.4015820401574 152.4015820401574 0 0 0 101.78593628155522,-10.885086347856571"/><text text-anchor="middle" pointer-events="none" font-size="8px" fill="#000000" x="68.89306357049067" y="-10.576701582951017" transform="rotate(180 68.89306357049067 -13.576701582951017)" font-family="Helvetica Neue, Helvetica, Arial, sans-serif">DEPLOYED_ON</text></g><g class="relationship" transform="translate(-699.689249712856 -88.033844476708) rotate(409.1111456076117)"><path class="b-outline" fill="#A5ABB6" stroke="none" d="M 32.5 0.5 L 77.19102040521027 0.5 L 77.19102040521027 -0.5 L 32.5 -0.5 Z M 125.73008290521027 0.5 L 170.42110331042053 0.5 L 170.42110331042053 3.5 L 177.42110331042053 0 L 170.42110331042053 -3.5 L 170.42110331042053 -0.5 L 125.73008290521027 -0.5 Z"/><text text-anchor="middle" pointer-events="none" font-size="8px" fill="#000000" x="101.46055165521027" y="3" font-family="Helvetica Neue, Helvetica, Arial, sans-serif">RESOLVES</text></g><g class="relationship" transform="translate(-725.4267527518656 63.28102175466151) rotate(362.59048089096694)"><path class="b-outline" fill="#A5ABB6" stroke="none" d="M 32.5 0.5 L 53.88919081685428 0.5 L 53.88919081685428 -0.5 L 32.5 -0.5 Z M 102.42825331685428 0.5 L 123.81744413370856 0.5 L 123.81744413370856 3.5 L 130.81744413370856 0 L 123.81744413370856 -3.5 L 123.81744413370856 -0.5 L 102.42825331685428 -0.5 Z"/><text text-anchor="middle" pointer-events="none" font-size="8px" fill="#000000" x="78.15872206685428" y="3" font-family="Helvetica Neue, Helvetica, Arial, sans-serif">RESOLVES</text></g><g class="relationship" transform="translate(-555.7043866092338 -74.08204092308463) rotate(185.53455139478126)"><path class="b-outline" fill="#A5ABB6" stroke="none" d="M 32.5 0.5 L 45.4565695095899 0.5 L 45.4565695095899 -0.5 L 32.5 -0.5 Z M 92.2026632595899 0.5 L 105.1592327691798 0.5 L 105.1592327691798 3.5 L 112.1592327691798 0 L 105.1592327691798 -3.5 L 105.1592327691798 -0.5 L 92.2026632595899 -0.5 Z"/><text text-anchor="middle" pointer-events="none" font-size="8px" fill="#000000" x="68.8296163845899" y="3" transform="rotate(180 68.8296163845899 0)" font-family="Helvetica Neue, Helvetica, Arial, sans-serif">CONTAINS</text></g><g class="relationship" transform="translate(-725.4267527518656 63.28102175466151) rotate(279.6531885619416)"><path class="b-outline" fill="#A5ABB6" stroke="none" d="M 31.26317983184346,8.894581878976458 L 31.52199887694598,7.92865605268739 A 168.38114928158603 168.38114928158603 0 0 0 36.50074562744829,9.181677397336188 L 36.27149489668348,10.15504480096331 A 169.38114928158603 169.38114928158603 0 0 1 31.26317983184346,8.894581878976458 Z M 110.19560856051629,10.990808295975398 L 109.98842280482808,10.012506674470075 A 168.38114928158603 168.38114928158603 0 0 0 114.99422589745203,8.87236760678658 L 114.28348163206869,5.957776282222413 L 121.91339636566563,7.699729541652822 L 115.94188491796314,12.758489372872136 L 115.2311406525798,9.843898048307969 A 169.38114928158603 169.38114928158603 0 0 1 110.19560856051629,10.990808295975398"/><text text-anchor="middle" pointer-events="none" font-size="8px" fill="#000000" x="73.19305036470799" y="17.15531252937575" font-family="Helvetica Neue, Helvetica, Arial, sans-serif">PARENT_DOMAIN</text></g><g class="relationship" transform="translate(-555.7043866092338 -74.08204092308463) rotate(501.0153762904169)"><path class="b-outline" fill="#A5ABB6" stroke="none" d="M 32.5 0.5 L 82.29917092474976 0.5 L 82.29917092474976 -0.5 L 32.5 -0.5 Z M 129.04526467474977 0.5 L 178.84443559949952 0.5 L 178.84443559949952 3.5 L 185.84443559949952 0 L 178.84443559949952 -3.5 L 178.84443559949952 -0.5 L 129.04526467474977 -0.5 Z"/><text text-anchor="middle" pointer-events="none" font-size="8px" fill="#000000" x="105.67221779974976" y="3" transform="rotate(180 105.67221779974976 0)" font-family="Helvetica Neue, Helvetica, Arial, sans-serif">CONTAINS</text></g><g class="relationship" transform="translate(-699.689249712856 -88.033844476708) rotate(459.6531885619416)"><path class="b-outline" fill="#A5ABB6" stroke="none" d="M 31.26317983184346,8.894581878976458 L 31.52199887694598,7.92865605268739 A 168.38114928158603 168.38114928158603 0 0 0 38.59074160595249,9.659896811606046 L 38.37390316710646,10.636104315899473 A 169.38114928158603 169.38114928158603 0 0 1 31.26317983184346,8.894581878976458 Z M 108.08286164146082,11.424212551232728 L 107.88814921546728,10.443352178313262 A 168.38114928158603 168.38114928158603 0 0 0 114.99422589745203,8.87236760678658 L 114.28348163206869,5.957776282222413 L 121.91339636566563,7.699729541652822 L 115.94188491796314,12.758489372872136 L 115.2311406525798,9.843898048307969 A 169.38114928158603 169.38114928158603 0 0 1 108.08286164146082,11.424212551232728"/><text text-anchor="middle" pointer-events="none" font-size="8px" fill="#000000" x="73.19305036470799" y="17.15531252937575" transform="rotate(180 73.19305036470799 14.155312529375749)" font-family="Helvetica Neue, Helvetica, Arial, sans-serif">SUBDOMAIN_OF</text></g></g><g class="layer nodes"><g class="node" aria-label="graph-node2507599" transform="translate(-312.45555114746094,51.859338328956255)"><circle class="b-outline" cx="0" cy="0" r="32.5" fill="#F79767" stroke="#f36924" stroke-width="2px"/><text class="caption" text-anchor="middle" pointer-events="none" x="0" y="5" font-size="10px" fill="#FFFFFF" font-family="Helvetica Neue, Helvetica, Arial, sans-serif"> tma.ifip.org</text></g><g class="node" aria-label="graph-node413364" transform="translate(-162.50121498047886,-16.639422414493396)"><circle class="b-outline" cx="0" cy="0" r="32.5" fill="#57C7E3" stroke="#23b3d7" stroke-width="2px"/><text class="caption" text-anchor="middle" pointer-events="none" x="0" y="5" font-size="10px" fill="#2A2C34" font-family="Helvetica Neue, Helvetica, Arial, sans-serif"> 213.145.22…</text></g><g class="node" aria-label="graph-node3552734" transform="translate(-171.0316294070919,130.3697909538226)"><circle class="b-outline" cx="0" cy="0" r="32.5" fill="#D9C8AE" stroke="#c0a378" stroke-width="2px"/><text class="caption" text-anchor="middle" pointer-events="none" x="0" y="5" font-size="10px" fill="#2A2C34" font-family="Helvetica Neue, Helvetica, Arial, sans-serif"> CN=tma.ifip…</text></g><g class="node" aria-label="graph-node2850558" transform="translate(-373.82136178474735,-139.811038801038)"><circle class="b-outline" cx="0" cy="0" r="32.5" fill="#F79767" stroke="#f36924" stroke-width="2px"/><text class="caption" text-anchor="middle" pointer-events="none" x="0" y="5" font-size="10px" fill="#FFFFFF" font-family="Helvetica Neue, Helvetica, Arial, sans-serif"> ifip.org</text></g><g class="node" aria-label="graph-node127441" transform="translate(-562.2762039226709,70.66248333754461)"><circle class="b-outline" cx="0" cy="0" r="32.5" fill="#57C7E3" stroke="#23b3d7" stroke-width="2px"/><text class="caption" text-anchor="middle" pointer-events="none" x="0" y="5" font-size="10px" fill="#2A2C34" font-family="Helvetica Neue, Helvetica, Arial, sans-serif"> 3.69.149.181</text></g><g class="node" aria-label="graph-node2302687" transform="translate(-431.96182651513845,59.77811784715186)"><circle class="b-outline" cx="0" cy="0" r="32.5" fill="#F79767" stroke="#f36924" stroke-width="2px"/><text class="caption" text-anchor="middle" pointer-events="none" x="0" y="5" font-size="10px" fill="#FFFFFF" font-family="Helvetica Neue, Helvetica, Arial, sans-serif"> www.ifip.org</text></g><g class="node" aria-label="graph-node3780047" transform="translate(-555.7043866092338,-74.08204092308463)"><circle class="b-outline" cx="0" cy="0" r="32.5" fill="#D9C8AE" stroke="#c0a378" stroke-width="2px"/><text class="caption" text-anchor="middle" pointer-events="none" x="0" y="5" font-size="10px" fill="#2A2C34" font-family="Helvetica Neue, Helvetica, Arial, sans-serif"> CN=www.ifi…</text></g><g class="node" aria-label="graph-node1017864" transform="translate(-699.689249712856,-88.033844476708)"><circle class="b-outline" cx="0" cy="0" r="32.5" fill="#F79767" stroke="#f36924" stroke-width="2px"/><text class="caption" text-anchor="middle" pointer-events="none" x="0" y="5" font-size="10px" fill="#FFFFFF" font-family="Helvetica Neue, Helvetica, Arial, sans-serif"> ifip.or.at</text></g><g class="node" aria-label="graph-node1375894" transform="translate(-725.4267527518656,63.28102175466151)"><circle class="b-outline" cx="0" cy="0" r="32.5" fill="#F79767" stroke="#f36924" stroke-width="2px"/><text class="caption" text-anchor="middle" pointer-events="none" x="0" y="5" font-size="10px" fill="#FFFFFF" font-family="Helvetica Neue, Helvetica, Arial, sans-serif"> www.ifip.or.at</text></g></g></svg>