<svg xmlns="http://www.w3.org/2000/svg" width="269.94171142578125" height="255.05526733398438" viewBox="-88.31069946289062 -151.2091522216797 269.94171142578125 255.05526733398438"><title>Neo4j Graph Visualization</title><desc>Created using Neo4j (http://www.neo4j.com/)</desc><g class="layer relationships"><g class="relationship" transform="translate(86.29237315418719 -51.98662562203012) rotate(523.8246961984856)"><path class="b-outline" fill="#A5ABB6" stroke="none" d="M 6.953439040707552 24.018736134675446 L 17.306200844808384 62.65576918623819 A 17.916697508022974 17.916697508022974 0 1 1 -17.306200844808384 62.65576918623819 L -8.765172356425198 30.780216918698923 L -4.901469051268926 31.815493099109005 L -6.4704761275630185 24.148145657226706 L -11.662949835292403 30.00375978339136 L -7.79924653013613 31.039035963801442 L -16.340275018519314 62.91458823134071 A 16.916697508022974 16.916697508022974 0 1 0 16.340275018519314 62.91458823134071 L 5.987513214418485 24.277555179777966 Z"/><text text-anchor="middle" pointer-events="none" font-size="8px" fill="#000000" x="0" y="94.20964923467838" transform="rotate(180 0 91.20964923467838)" font-family="Helvetica Neue, Helvetica, Arial, sans-serif">PARENT_…</text></g><g class="relationship" transform="translate(86.29237315418719 -51.98662562203012) rotate(239.02391585182045)"><path class="b-outline" fill="#A5ABB6" stroke="none" d="M 6.953439040707552 24.018736134675446 L 17.306200844808384 62.65576918623819 A 17.916697508022974 17.916697508022974 0 1 1 -17.306200844808384 62.65576918623819 L -8.765172356425198 30.780216918698923 L -4.901469051268926 31.815493099109005 L -6.4704761275630185 24.148145657226706 L -11.662949835292403 30.00375978339136 L -7.79924653013613 31.039035963801442 L -16.340275018519314 62.91458823134071 A 16.916697508022974 16.916697508022974 0 1 0 16.340275018519314 62.91458823134071 L 5.987513214418485 24.277555179777966 Z"/><text text-anchor="middle" pointer-events="none" font-size="8px" fill="#000000" x="0" y="94.20964923467838" transform="rotate(180 0 91.20964923467838)" font-family="Helvetica Neue, Helvetica, Arial, sans-serif">SUBDOM…</text></g><g class="relationship" transform="translate(14.760587874153185 74.84610801919031) rotate(239.01307209521946)"><path class="b-outline" fill="#A5ABB6" stroke="none" d="M 21.40063509461097,-12.933012701892217 L 21.90063509461097,-12.06698729810778 A 97.29716380928433 97.29716380928433 0 0 1 46.31635699493167,-22.036305544889984 L 46.067296703186464,-23.004793526785363 A 98.29716380928433 98.29716380928433 0 0 0 21.40063509461097,-12.933012701892217 Z M 90.56228373508202,-24.043467493416543 L 90.35868613409062,-23.06441283872634 A 97.29716380928433 97.29716380928433 0 0 1 115.21299949338969,-14.245235458880051 L 113.8358643104459,-11.579996503758316 L 121.66141291916436,-11.47612652453152 L 117.04917973731473,-17.798887399042364 L 115.67204455437094,-15.13364844392063 A 98.29716380928433 98.29716380928433 0 0 0 90.56228373508202,-24.043467493416543"/><text text-anchor="middle" pointer-events="none" font-size="8px" fill="#000000" x="68.26689915635009" y="-22.575700382826113" transform="rotate(180 68.26689915635009 -25.575700382826113)" font-family="Helvetica Neue, Helvetica, Arial, sans-serif">RETURNS</text></g><g class="relationship" transform="translate(-59.31069685263706 -48.49294355488172) rotate(419.01307209521946)"><path class="b-outline" fill="#A5ABB6" stroke="none" d="M 25 0.5 L 35.42610314758943 0.5 L 35.42610314758943 -0.5 L 25 -0.5 Z M 101.44563439758943 0.5 L 111.87173754517886 0.5 L 111.87173754517886 3.5 L 118.87173754517886 0 L 111.87173754517886 -3.5 L 111.87173754517886 -0.5 L 101.44563439758943 -0.5 Z"/><text text-anchor="middle" pointer-events="none" font-size="8px" fill="#000000" x="68.43586877258943" y="3" font-family="Helvetica Neue, Helvetica, Arial, sans-serif">DEPLOYED_ON</text></g><g class="relationship" transform="translate(86.29237315418719 -51.98662562203012) rotate(479.4223551584901)"><path class="b-outline" fill="#A5ABB6" stroke="none" d="M 25 0.5 L 45.03729986537965 0.5 L 45.03729986537965 -0.5 L 25 -0.5 Z M 93.57636236537965 0.5 L 113.6136622307593 0.5 L 113.6136622307593 3.5 L 120.6136622307593 0 L 113.6136622307593 -3.5 L 113.6136622307593 -0.5 L 93.57636236537965 -0.5 Z"/><text text-anchor="middle" pointer-events="none" font-size="8px" fill="#000000" x="69.30683111537965" y="3" transform="rotate(180 69.30683111537965 0)" font-family="Helvetica Neue, Helvetica, Arial, sans-serif">RESOLVES</text></g><g class="relationship" transform="translate(-59.31069685263706 -48.49294355488172) rotate(358.62547654515083)"><path class="b-outline" fill="#A5ABB6" stroke="none" d="M 25 0.5 L 45.949442456590546 0.5 L 45.949442456590546 -0.5 L 25 -0.5 Z M 92.69553620659055 0.5 L 113.64497866318109 0.5 L 113.64497866318109 3.5 L 120.64497866318109 0 L 113.64497866318109 -3.5 L 113.64497866318109 -0.5 L 92.69553620659055 -0.5 Z"/><text text-anchor="middle" pointer-events="none" font-size="8px" fill="#000000" x="69.32248933159055" y="3" font-family="Helvetica Neue, Helvetica, Arial, sans-serif">CONTAINS</text></g><g class="relationship" transform="translate(-59.31069685263706 -48.49294355488172) rotate(419.01307209521946)"><path class="b-outline" fill="#A5ABB6" stroke="none" d="M 21.40063509461097,-12.933012701892217 L 21.90063509461097,-12.06698729810778 A 97.29716380928433 97.29716380928433 0 0 1 45.31656895259506,-21.773525746582933 L 45.05723304742811,-22.739312932401447 A 98.29716380928433 98.29716380928433 0 0 0 21.40063509461097,-12.933012701892217 Z M 91.58363497812022,-23.825407471810735 L 91.36964693244599,-22.84857119263775 A 97.29716380928433 97.29716380928433 0 0 1 115.21299949338969,-14.245235458880051 L 113.8358643104459,-11.579996503758316 L 121.66141291916436,-11.47612652453152 L 117.04917973731473,-17.798887399042364 L 115.67204455437094,-15.13364844392063 A 98.29716380928433 98.29716380928433 0 0 0 91.58363497812022,-23.825407471810735"/><text text-anchor="middle" pointer-events="none" font-size="8px" fill="#000000" x="68.26689915635009" y="-22.575700382826113" font-family="Helvetica Neue, Helvetica, Arial, sans-serif">CONTAINS</text></g><g class="relationship" transform="translate(86.29237315418719 -51.98662562203012) rotate(314.22313550515526)"><path class="b-outline" fill="#A5ABB6" stroke="none" d="M 6.953439040707552 24.018736134675446 L 17.306200844808384 62.65576918623819 A 17.916697508022974 17.916697508022974 0 1 1 -17.306200844808384 62.65576918623819 L -8.765172356425198 30.780216918698923 L -4.901469051268926 31.815493099109005 L -6.4704761275630185 24.148145657226706 L -11.662949835292403 30.00375978339136 L -7.79924653013613 31.039035963801442 L -16.340275018519314 62.91458823134071 A 16.916697508022974 16.916697508022974 0 1 0 16.340275018519314 62.91458823134071 L 5.987513214418485 24.277555179777966 Z"/><text text-anchor="middle" pointer-events="none" font-size="8px" fill="#000000" x="0" y="94.20964923467838" font-family="Helvetica Neue, Helvetica, Arial, sans-serif">REDIRECTS</text></g></g><g class="layer nodes"><g class="node" aria-label="graph-node-1" transform="translate(14.760587874153185,74.84610801919031)"><circle class="b-outline" cx="0" cy="0" r="25" fill="#57C7E3" stroke="#23b3d7" stroke-width="2px"/><text class="caption" text-anchor="middle" pointer-events="none" x="0" y="5" font-size="10px" fill="#2A2C34" font-family="Helvetica Neue, Helvetica, Arial, sans-serif"> IP</text></g><g class="node" aria-label="graph-node-2" transform="translate(86.29237315418719,-51.98662562203012)"><circle class="b-outline" cx="0" cy="0" r="25" fill="#F79767" stroke="#f36924" stroke-width="2px"/><text class="caption" text-anchor="middle" pointer-events="none" x="0" y="5" font-size="10px" fill="#FFFFFF" font-family="Helvetica Neue, Helvetica, Arial, sans-serif"> Domain</text></g><g class="node" aria-label="graph-node-3" transform="translate(-59.31069685263706,-48.49294355488172)"><circle class="b-outline" cx="0" cy="0" r="25" fill="#D9C8AE" stroke="#c0a378" stroke-width="2px"/><text class="caption" text-anchor="middle" pointer-events="none" x="0" y="5" font-size="10px" fill="#2A2C34" font-family="Helvetica Neue, Helvetica, Arial, sans-serif"> Certificate</text></g></g></svg>